<svg fill="none" height="400" viewBox="0 0 400 400" width="400" xmlns="http://www.w3.org/2000/svg"><g stroke="#000" stroke-linecap="round" stroke-linejoin="round" stroke-opacity=".9" stroke-width="16"><path d="m81 328.459c30.723-80.539 85.383-143.65 161.843-185.497"/><path d="m151.266 164.155c-7.04-.848 56.099 16.919 48.634 9.367-1.476-1.492-3.077 9.275-3.089 9.367-.808 7.345-2.201 14.763 1.545 21.075"/><path d="m156.907 199.454c-19.328 12.156-70.4713 6.152-59.4202-27.034 1.9082-5.723 7.1092-12.304 12.3482-15.452.839-.501 6.946-1.861 6.946-2.316 0-1.056-33.2323-50.29 14.663-55.6179 24.606-2.7342 43.787 19.6779 50.16 40.9399.236.79 6.192 23.176 5.403 23.176-14.591 0 5.652-67.64 17.746-78.0184 10.79-9.2582 22.292-13.1316 36.272-13.1316 44.819 0 13.809 53.138 18.521 62.567.944 1.895 72.349 20.328 57.106 61.025-8.217 21.93-36.749 42.995-60.194 33.216-2.44-1.018-38.263-15.771-35.498-18.539 5.106-5.111 45.528 29.438 45.528 41.715 0 28.416-29.75 13.557-40.126 23.947-5.944 5.947.027 28.762-20.065 36.303-25.182 9.456-40.501-35.794-42.443-53.301-1.256-11.32 5.948-21.816 7.716-32.441"/></g></svg>